<svg width="32" height="32" viewBox="0 0 32 32" fill="none" xmlns="http://www.w3.org/2000/svg">
<path d="M0 5C0 2.23858 2.23858 0 5 0H16V16H0V5Z" fill="#F5F5F5"/>
<path d="M16 0H27C29.7614 0 32 2.23858 32 5V16H16V0Z" fill="#1C1C1C"/>
<path d="M0 16H16V32H5C2.23858 32 0 29.7614 0 27V16Z" fill="#1C1C1C"/>
<path d="M16 16H32V27C32 29.7614 29.7614 32 27 32H16V16Z" fill="#F5F5F5"/>
<path d="M12.8 23.92C12.8 26.6151 10.6151 28.8 7.92 28.8C5.22485 28.8 3.04 26.6151 3.04 23.92C3.04 21.2248 5.22485 19.04 7.92 19.04C10.6151 19.04 12.8 21.2248 12.8 23.92Z" fill="#D9D9D9"/>
<path d="M28.8 23.92C28.8 26.6151 26.6151 28.8 23.92 28.8C21.2248 28.8 19.04 26.6151 19.04 23.92C19.04 21.2248 21.2248 19.04 23.92 19.04C26.6151 19.04 28.8 21.2248 28.8 23.92Z" fill="#353535"/>
<path d="M12.8 7.92C12.8 10.6151 10.6151 12.8 7.92 12.8C5.22485 12.8 3.04 10.6151 3.04 7.92C3.04 5.22485 5.22485 3.04 7.92 3.04C10.6151 3.04 12.8 5.22485 12.8 7.92Z" fill="#353535"/>
<path d="M28.8 7.92C28.8 10.6151 26.6151 12.8 23.92 12.8C21.2248 12.8 19.04 10.6151 19.04 7.92C19.04 5.22485 21.2248 3.04 23.92 3.04C26.6151 3.04 28.8 5.22485 28.8 7.92Z" fill="#D9D9D9"/>
</svg>
